<svg width="1184" height="430" viewBox="0 0 1184 430" fill="none" xmlns="http://www.w3.org/2000/svg">
    <mask id="path-1-outside-1_3_21" maskUnits="userSpaceOnUse" x="0" y="0" width="1184"
        height="430" fill="black">
        <rect fill="white" width="1184" height="430" />
        <path
            d="M54.0891 288.281C44.8849 280.638 40.2828 271.607 40.2828 261.186C40.2828 248.681 49.6574 238.087 68.4068 229.402C87.4967 220.718 115.962 215.682 153.801 214.292V258.06C153.801 263.271 153.46 267.265 152.779 270.044C152.438 272.823 150.733 276.297 147.665 280.465C144.597 284.633 139.995 288.107 133.859 290.886C121.928 296.444 107.61 299.223 90.906 299.223C75.9068 299.223 63.6345 295.575 54.0891 288.281Z" />
        <path
            d="M866.167 270.546C881.507 253.178 889.177 232.51 889.177 208.541C889.177 185.615 881.337 166.337 865.656 150.705C849.974 135.074 831.396 127.258 809.919 127.258C788.443 127.258 769.866 135.074 754.182 150.705C738.499 166.337 730.661 185.615 730.661 208.541C730.661 232.51 738.499 253.178 754.182 270.546C769.523 287.567 788.099 296.077 809.919 296.077C832.075 296.077 850.827 287.567 866.167 270.546Z" />
    </mask>
    <path
        d="M946.849 296.096V300.596H951.349V296.096H946.849ZM946.849 135.093H951.349V130.593H946.849V135.093ZM902.362 108.52L905.573 111.673L905.576 111.67L902.362 108.52ZM909.521 103.83L908.873 99.3773L908.82 99.385L908.767 99.394L909.521 103.83ZM979.064 108.52L975.186 110.803L975.186 110.803L979.064 108.52ZM982.132 129.883H977.632V140.265L985.209 133.167L982.132 129.883ZM1130.93 296.096H1126.43V300.596H1130.93V296.096ZM1167.75 296.617L1167 301.054L1167.05 301.063L1167.1 301.071L1167.75 296.617ZM1174.91 301.307L1171.5 304.241L1171.69 304.466L1171.91 304.664L1174.91 301.307ZM1058.32 327.359L1057.57 331.796L1057.62 331.805L1057.67 331.812L1058.32 327.359ZM1051.16 323.191L1047.75 326.124L1047.95 326.35L1048.17 326.548L1051.16 323.191ZM1095.65 296.096V300.596H1100.15V296.096H1095.65ZM1087.47 143.43L1091.13 140.815L1091.13 140.815L1087.47 143.43ZM1022.53 138.219L1020.88 134.033L1020.85 134.043L1020.83 134.052L1022.53 138.219ZM994.404 161.667L990.794 158.981L990.767 159.016L990.742 159.052L994.404 161.667ZM982.132 296.096H977.632V300.596H982.132V296.096ZM1018.95 296.617L1018.2 301.054L1018.25 301.063L1018.3 301.071L1018.95 296.617ZM1026.11 301.307L1022.7 304.241L1022.89 304.466L1023.11 304.664L1026.11 301.307ZM44.3736 205.434L46.4374 209.433L46.4475 209.428L46.4577 209.423L44.3736 205.434ZM153.801 183.55L153.869 188.05L158.301 187.984V183.55H153.801ZM136.927 143.951L134.11 147.46L134.143 147.487L134.177 147.513L136.927 143.951ZM71.9862 130.925L72.3672 135.409L72.3672 135.409L71.9862 130.925ZM64.316 132.488L61.788 128.765L61.4178 129.017L61.1043 129.336L64.316 132.488ZM63.2933 136.656L67.7896 136.84L67.7933 136.748V136.656H63.2933ZM55.6231 154.893L52.8107 151.38L52.7468 151.431L52.6848 151.485L55.6231 154.893ZM24.4311 154.372L21.348 157.65L21.348 157.65L24.4311 154.372ZM164.028 123.109L160.85 126.295L160.883 126.328L160.918 126.361L164.028 123.109ZM189.084 291.928H184.584V294.83L187.228 296.027L189.084 291.928ZM159.426 311.207L163.156 308.69L160.589 304.885L156.836 307.527L159.426 311.207ZM28.0105 310.686L24.9896 314.021L25.0106 314.04L25.0318 314.059L28.0105 310.686ZM239.076 296.096V300.596H243.576V296.096H239.076ZM239.076 135.093H243.576V130.593H239.076V135.093ZM194.589 108.52L191.377 105.368L191.377 105.368L194.589 108.52ZM201.748 103.83L201.099 99.3774L201.047 99.3851L200.994 99.394L201.748 103.83ZM271.291 108.52L267.413 110.803L267.413 110.803L271.291 108.52ZM274.359 131.967H269.859V144.359L277.81 134.854L274.359 131.967ZM365.378 110.604L362.167 113.756L362.207 113.797L362.248 113.837L365.378 110.604ZM368.958 148.64L365.875 145.362L365.809 145.424L365.746 145.488L368.958 148.64ZM339.811 150.203L337.035 153.745L337.185 153.863L337.345 153.968L339.811 150.203ZM332.652 132.488L337.149 132.304L336.951 127.487L332.159 128.015L332.652 132.488ZM299.926 149.682L296.604 146.647L296.576 146.678L296.548 146.71L299.926 149.682ZM280.495 185.635L284.803 186.935L284.808 186.921L284.812 186.906L280.495 185.635ZM274.359 296.096H269.859V300.596H274.359V296.096ZM641.88 296.096V300.596H646.38V296.096H641.88ZM641.88 135.093H646.38V130.593H641.88V135.093ZM673.072 107.999L669.495 110.729L669.665 110.951L669.86 111.151L673.072 107.999ZM677.163 296.096H672.663V300.55L677.116 300.596L677.163 296.096ZM341.018 296.096V300.596H343.274L344.624 298.788L341.018 296.096ZM443.287 159.061L446.893 161.753L448.966 158.975L446.81 156.262L443.287 159.061ZM349.71 41.3048L353.234 38.5052L351.882 36.8048H349.71V41.3048ZM394.709 41.3048V36.8048H385.472L391.165 44.0786L394.709 41.3048ZM463.229 128.841L459.686 131.614L463.354 136.301L466.863 131.494L463.229 128.841ZM527.147 41.3048L530.781 43.9586L536.005 36.8048H527.147V41.3048ZM570.611 41.3048V36.8048H568.348L566.999 38.6221L570.611 41.3048ZM483.171 159.061L479.559 156.379L477.502 159.148L479.642 161.853L483.171 159.061ZM591.577 296.096L588.047 298.888L589.399 300.596H591.577V296.096ZM519.988 301.307L523.2 304.459L523.2 304.459L519.988 301.307ZM527.147 296.617L526.499 292.164L526.446 292.172L526.393 292.181L527.147 296.617ZM547.601 296.096V300.596H556.701L551.177 293.365L547.601 296.096ZM463.229 185.635L466.805 182.903L463.116 178.073L459.573 183.011L463.229 185.635ZM383.971 296.096L380.314 293.473L375.203 300.596H383.971V296.096ZM891.223 129.863L894.459 126.736L894.447 126.724L894.435 126.711L891.223 129.863ZM729.127 129.863L732.338 133.015L732.35 133.003L732.362 132.991L729.127 129.863ZM729.127 294.514L725.939 297.69L725.939 297.69L729.127 294.514ZM1017.96 397.293L1021.15 400.475L1024.33 397.293L1021.15 394.11L1017.96 397.293ZM992.252 423L989.071 426.182L992.252 429.363L995.434 426.182L992.252 423ZM731.329 296.673L731.217 301.171L742.845 301.463L734.44 293.421L731.329 296.673ZM876.346 307.117L879.527 303.934L876.826 301.234L873.723 303.46L876.346 307.117ZM902.276 281.627L898.665 278.943L896.347 282.062L899.095 284.81L902.276 281.627ZM916.748 296.096L913.567 299.279L914.885 300.596H916.748V296.096ZM948.538 327.88V323.38H937.673L945.357 331.063L948.538 327.88ZM951.349 296.096V135.093H942.349V296.096H951.349ZM946.849 130.593H919.237V139.593H946.849V130.593ZM919.237 130.593C912.863 130.593 908.909 129.354 906.628 127.61C904.576 126.041 903.283 123.606 903.283 119.462H894.283C894.283 125.738 896.398 131.119 901.163 134.761C905.699 138.227 911.972 139.593 919.237 139.593V130.593ZM903.283 119.462C903.283 115.269 904.309 112.959 905.573 111.673L899.152 105.366C895.638 108.944 894.283 113.929 894.283 119.462H903.283ZM905.576 111.67C908.134 109.061 909.681 108.368 910.275 108.267L908.767 99.394C905.271 99.9882 902.04 102.421 899.149 105.369L905.576 111.67ZM910.169 108.283C912.247 107.981 915.236 107.809 919.237 107.809V98.8093C915.056 98.8093 911.574 98.9843 908.873 99.3773L910.169 108.283ZM919.237 107.809H961.678V98.8093H919.237V107.809ZM961.678 107.809C966.236 107.809 969.584 108.23 971.893 108.922C974.234 109.624 974.969 110.435 975.186 110.803L982.942 106.237C981.113 103.131 977.929 101.336 974.477 100.301C970.991 99.2565 966.668 98.8093 961.678 98.8093V107.809ZM975.186 110.803C975.764 111.784 976.428 113.742 976.911 117.105C977.381 120.378 977.632 124.618 977.632 129.883H986.632C986.632 124.378 986.372 119.675 985.819 115.826C985.28 112.069 984.41 108.73 982.942 106.237L975.186 110.803ZM985.209 133.167C1005.51 114.149 1029.46 104.683 1057.3 104.683V95.6831C1027.18 95.6831 1001.02 106.017 979.055 126.599L985.209 133.167ZM1057.3 104.683C1081.11 104.683 1098.15 110.825 1109.29 122.331C1120.45 133.864 1126.43 151.556 1126.43 176.256H1135.43C1135.43 150.241 1129.14 129.896 1115.76 116.072C1102.35 102.22 1082.58 95.6831 1057.3 95.6831V104.683ZM1126.43 176.256V296.096H1135.43V176.256H1126.43ZM1130.93 300.596H1158.55V291.596H1130.93V300.596ZM1158.55 300.596C1162.58 300.596 1165.34 300.772 1167 301.054L1168.5 292.181C1166.07 291.768 1162.7 291.596 1158.55 291.596V300.596ZM1167.1 301.071C1167.98 301.198 1169.46 301.87 1171.5 304.241L1178.32 298.373C1175.58 295.187 1172.3 292.732 1168.4 292.164L1167.1 301.071ZM1171.91 304.664C1173.39 305.985 1174.5 308.224 1174.5 312.249H1183.5C1183.5 306.548 1181.87 301.492 1177.91 297.95L1171.91 304.664ZM1174.5 312.249C1174.5 316.393 1173.21 318.828 1171.15 320.397C1168.87 322.141 1164.92 323.38 1158.55 323.38V332.38C1165.81 332.38 1172.08 331.014 1176.62 327.548C1181.39 323.906 1183.5 318.525 1183.5 312.249H1174.5ZM1158.55 323.38H1068.04V332.38H1158.55V323.38ZM1068.04 323.38C1064.04 323.38 1061.05 323.208 1058.97 322.906L1057.67 331.812C1060.38 332.205 1063.86 332.38 1068.04 332.38V323.38ZM1059.08 322.923C1058.28 322.788 1056.67 322.073 1054.16 319.834L1048.17 326.548C1051.11 329.172 1054.27 331.235 1057.57 331.796L1059.08 322.923ZM1054.58 320.257C1053.09 318.532 1052.08 315.874 1052.08 311.728H1043.08C1043.08 317.307 1044.46 322.293 1047.75 326.124L1054.58 320.257ZM1052.08 311.728C1052.08 307.583 1053.38 305.148 1055.43 303.58C1057.71 301.836 1061.66 300.596 1068.04 300.596V291.596C1060.77 291.596 1054.5 292.962 1049.96 296.429C1045.2 300.071 1043.08 305.451 1043.08 311.728H1052.08ZM1068.04 300.596H1095.65V291.596H1068.04V300.596ZM1100.15 296.096V179.382H1091.15V296.096H1100.15ZM1100.15 179.382C1100.15 162.735 1097.41 149.603 1091.13 140.815L1083.81 146.045C1088.45 152.542 1091.15 163.377 1091.15 179.382H1100.15ZM1091.13 140.815C1084.35 131.315 1071.29 127.467 1054.23 127.467V136.467C1070.58 136.467 1079.68 140.26 1083.81 146.045L1091.13 140.815ZM1054.23 127.467C1043.05 127.467 1031.93 129.673 1020.88 134.033L1024.18 142.406C1034.26 138.429 1044.27 136.467 1054.23 136.467V127.467ZM1020.83 134.052C1009.65 138.609 999.667 147.049 990.794 158.981L998.015 164.352C1006.19 153.358 1014.95 146.166 1024.23 142.387L1020.83 134.052ZM990.742 159.052C981.91 171.426 977.632 186.633 977.632 204.392H986.632C986.632 188.109 990.536 174.833 998.067 164.281L990.742 159.052ZM977.632 204.392V296.096H986.632V204.392H977.632ZM982.132 300.596H1009.74V291.596H982.132V300.596ZM1009.74 300.596C1013.78 300.596 1016.54 300.772 1018.2 301.054L1019.7 292.181C1017.27 291.768 1013.89 291.596 1009.74 291.596V300.596ZM1018.3 301.071C1019.17 301.198 1020.66 301.87 1022.7 304.241L1029.52 298.373C1026.78 295.187 1023.5 292.732 1019.6 292.164L1018.3 301.071ZM1023.11 304.664C1024.59 305.985 1025.7 308.224 1025.7 312.249H1034.7C1034.7 306.548 1033.07 301.492 1029.1 297.95L1023.11 304.664ZM1025.7 312.249C1025.7 316.393 1024.41 318.828 1022.35 320.397C1020.07 322.141 1016.12 323.38 1009.74 323.38V332.38C1017.01 332.38 1023.28 331.014 1027.82 327.548C1032.58 323.906 1034.7 318.525 1034.7 312.249H1025.7ZM9.5 261.186C9.5 239.699 21.2386 222.438 46.4374 209.433L42.3097 201.436C15.0105 215.525 0.5 235.433 0.5 261.186H9.5ZM46.4577 209.423C72.1764 195.983 107.862 188.739 153.869 188.05L153.734 179.051C107.016 179.751 69.7506 187.096 42.2894 201.446L46.4577 209.423ZM158.301 183.55C158.301 164.82 152.299 150.133 139.677 140.389L134.177 147.513C144.054 155.137 149.301 166.85 149.301 183.55H158.301ZM139.744 140.442C127.457 130.578 111.007 125.904 90.906 125.904V134.904C109.667 134.904 123.898 139.262 134.11 147.46L139.744 140.442ZM90.906 125.904C82.361 125.904 75.896 126.076 71.6052 126.441L72.3672 135.409C76.2579 135.078 82.4055 134.904 90.906 134.904V125.904ZM71.6052 126.441C69.4723 126.622 67.6191 126.858 66.102 127.167C64.7446 127.444 63.0886 127.882 61.788 128.765L66.844 136.211C66.6382 136.351 66.5738 136.343 66.8176 136.261C67.0326 136.188 67.3814 136.091 67.8992 135.986C68.9388 135.774 70.4094 135.575 72.3672 135.409L71.6052 126.441ZM61.1043 129.336C59.992 130.469 59.4571 131.844 59.1787 132.979C58.8928 134.144 58.7933 135.401 58.7933 136.656H67.7933C67.7933 135.827 67.8644 135.348 67.9194 135.123C67.9446 135.021 67.9517 135.033 67.9086 135.121C67.8643 135.212 67.7519 135.412 67.5277 135.64L61.1043 129.336ZM58.7971 136.472C58.4888 144.005 56.2335 148.64 52.8107 151.38L58.4356 158.406C64.5573 153.505 67.4155 145.981 67.7896 136.84L58.7971 136.472ZM52.6848 151.485C49.0055 154.657 45.0876 156.124 40.7942 156.124V165.124C47.4095 165.124 53.3774 162.771 58.5615 158.301L52.6848 151.485ZM40.7942 156.124C35.3816 156.124 31.0539 154.423 27.5142 151.094L21.348 157.65C26.6717 162.657 33.2526 165.124 40.7942 165.124V156.124ZM27.5142 151.094C24.2068 147.983 22.2836 143.396 22.2836 136.656H13.2836C13.2836 145.201 15.7921 152.424 21.348 157.65L27.5142 151.094ZM22.2836 136.656C22.2836 131.063 23.6081 126.376 26.1183 122.431C28.6402 118.468 32.5231 114.997 38.0245 112.115C49.1599 106.282 66.4372 103.12 90.3946 103.12V94.1199C65.9446 94.1199 46.9164 97.2971 33.8482 104.143C27.2478 107.6 22.0543 112.053 18.5253 117.599C14.9846 123.164 13.2836 129.571 13.2836 136.656H22.2836ZM90.3946 103.12C122.43 103.12 145.629 111.108 160.85 126.295L167.207 119.923C149.702 102.458 123.812 94.1199 90.3946 94.1199V103.12ZM160.918 126.361C176.807 141.56 184.584 159.171 184.584 179.382H193.584C193.584 156.521 184.658 136.616 167.139 119.857L160.918 126.361ZM184.584 179.382V291.928H193.584V179.382H184.584ZM187.228 296.027C194.267 299.215 204.609 300.596 217.719 300.596V291.596C204.923 291.596 196.173 290.198 190.94 287.829L187.228 296.027ZM211.464 323.38C183.297 323.38 169.27 317.751 163.156 308.69L155.696 313.724C164.582 326.894 183.042 332.38 211.464 332.38V323.38ZM156.836 307.527C139.039 320.056 115.817 326.507 86.8152 326.507V335.507C117.13 335.507 142.314 328.757 162.017 314.886L156.836 307.527ZM86.8152 326.507C63.8562 326.507 45.3733 320.015 30.9893 307.313L25.0318 314.059C41.3285 328.45 62.0481 335.507 86.8152 335.507V326.507ZM31.0315 307.35C16.5449 294.229 9.5 278.907 9.5 261.186H0.5C0.5 281.676 8.79547 299.353 24.9896 314.021L31.0315 307.35ZM217.719 300.596H239.076V291.596H217.719V300.596ZM243.576 296.096V135.093H234.576V296.096H243.576ZM239.076 130.593H211.464V139.593H239.076V130.593ZM211.464 130.593C205.092 130.593 201.137 129.354 198.856 127.61C196.803 126.041 195.51 123.606 195.51 119.462H186.51C186.51 125.739 188.626 131.119 193.391 134.761C197.927 138.227 204.199 139.593 211.464 139.593V130.593ZM195.51 119.462C195.51 115.271 196.537 112.959 197.801 111.672L191.377 105.368C187.868 108.944 186.51 113.926 186.51 119.462H195.51ZM197.801 111.672C200.364 109.06 201.908 108.368 202.502 108.267L200.994 99.394C197.497 99.9884 194.268 102.422 191.377 105.368L197.801 111.672ZM202.397 108.283C204.471 107.981 207.462 107.809 211.464 107.809V98.8093C207.283 98.8093 203.798 98.9843 201.099 99.3774L202.397 108.283ZM211.464 107.809H253.905V98.8093H211.464V107.809ZM253.905 107.809C258.462 107.809 261.81 108.23 264.119 108.922C266.461 109.624 267.196 110.435 267.413 110.803L275.169 106.237C273.34 103.131 270.155 101.336 266.702 100.301C263.216 99.2565 258.894 98.8093 253.905 98.8093V107.809ZM267.413 110.803C267.958 111.728 268.636 113.8 269.13 117.571C269.606 121.211 269.859 125.991 269.859 131.967H278.859C278.859 125.785 278.6 120.579 278.054 116.403C277.525 112.359 276.67 108.786 275.169 106.237L267.413 110.803ZM277.81 134.854C294.818 114.525 314.581 104.683 337.254 104.683V95.6831C311.521 95.6831 289.354 107.03 270.907 129.079L277.81 134.854ZM337.254 104.683C348.268 104.683 356.379 107.859 362.167 113.756L368.59 107.452C360.742 99.4552 350.103 95.6831 337.254 95.6831V104.683ZM362.248 113.837C368.368 119.761 371.105 125.944 371.105 132.488H380.105C380.105 123.053 376.024 114.647 368.508 107.371L362.248 113.837ZM371.105 132.488C371.105 137.964 369.32 142.122 365.875 145.362L372.041 151.918C377.459 146.822 380.105 140.212 380.105 132.488H371.105ZM365.746 145.488C362.494 148.802 358.705 150.393 354.129 150.393V159.393C361.142 159.393 367.24 156.815 372.17 151.792L365.746 145.488ZM354.129 150.393C350.391 150.393 346.462 149.181 342.277 146.439L337.345 153.968C342.705 157.479 348.322 159.393 354.129 159.393V150.393ZM342.587 146.662C339.612 144.33 337.462 139.97 337.149 132.304L328.156 132.672C328.525 141.679 331.146 149.129 337.035 153.745L342.587 146.662ZM332.159 128.015C318.374 129.534 306.485 135.833 296.604 146.647L303.248 152.718C311.775 143.386 321.704 138.221 333.145 136.961L332.159 128.015ZM296.548 146.71C287.218 157.314 280.439 169.891 276.178 184.364L284.812 186.906C288.732 173.589 294.908 162.198 303.305 152.655L296.548 146.71ZM276.187 184.334C271.954 198.353 269.859 213.56 269.859 229.924H278.859C278.859 214.329 280.855 200.01 284.803 186.935L276.187 184.334ZM269.859 229.924V296.096H278.859V229.924H269.859ZM614.268 300.596H617.144V291.596H614.268V300.596ZM617.144 300.596H641.88V291.596H617.144V300.596ZM646.38 296.096V135.093H637.38V296.096H646.38ZM641.88 130.593H616.824V139.593H641.88V130.593ZM616.824 130.593C610.288 130.593 606.212 129.313 603.847 127.49C601.704 125.84 600.359 123.272 600.359 118.941H591.359C591.359 125.378 593.508 130.887 598.354 134.62C602.977 138.182 609.384 139.593 616.824 139.593V130.593ZM600.359 118.941C600.359 114.838 601.665 112.41 603.79 110.825C606.164 109.055 610.265 107.809 616.824 107.809V98.8093C609.407 98.8093 603.026 100.169 598.411 103.61C593.548 107.235 591.359 112.622 591.359 118.941H600.359ZM616.824 107.809H656.709V98.8093H616.824V107.809ZM656.709 107.809C660.739 107.809 663.776 108.184 665.952 108.808C668.146 109.436 669.098 110.209 669.495 110.729L676.649 105.268C674.66 102.662 671.692 101.09 668.432 100.156C665.154 99.2164 661.202 98.8093 656.709 98.8093V107.809ZM669.86 111.151C670.453 111.754 671.196 112.984 671.77 115.323C672.336 117.632 672.663 120.717 672.663 124.672H681.663C681.663 120.291 681.308 116.428 680.511 113.179C679.721 109.96 678.419 107.022 676.284 104.847L669.86 111.151ZM672.663 124.672V296.096H681.663V124.672H672.663ZM344.624 298.788L446.893 161.753L439.68 156.37L337.411 293.405L344.624 298.788ZM446.81 156.262L353.234 38.5052L346.187 44.1045L439.763 161.861L446.81 156.262ZM349.71 36.8048H324.655V45.8048H349.71V36.8048ZM324.655 36.8048C318.118 36.8048 314.042 35.5243 311.677 33.7021C309.534 32.0513 308.189 29.4834 308.189 25.1524H299.189C299.189 31.59 301.339 37.0983 306.184 40.8316C310.808 44.3935 317.214 45.8048 324.655 45.8048V36.8048ZM308.189 25.1524C308.189 21.05 309.495 18.6214 311.621 17.0365C313.994 15.2668 318.095 14.021 324.655 14.021V5.02104C317.238 5.02104 310.856 6.38048 306.241 9.82125C301.378 13.4469 299.189 18.8339 299.189 25.1524H308.189ZM324.655 14.021H404.424V5.02104H324.655V14.021ZM404.424 14.021C410.961 14.021 415.037 15.3016 417.402 17.1238C419.544 18.7746 420.889 21.3425 420.889 25.6735H429.889C429.889 19.2359 427.74 13.7276 422.894 9.99429C418.271 6.4324 411.865 5.02104 404.424 5.02104V14.021ZM420.889 25.6735C420.889 29.7759 419.584 32.2045 417.458 33.7894C415.085 35.5591 410.984 36.8048 404.424 36.8048V45.8048C411.841 45.8048 418.223 44.4454 422.838 41.0046C427.701 37.379 429.889 31.9919 429.889 25.6735H420.889ZM404.424 36.8048H394.709V45.8048H404.424V36.8048ZM391.165 44.0786L459.686 131.614L466.773 126.067L398.252 38.5311L391.165 44.0786ZM466.863 131.494L530.781 43.9586L523.513 38.6511L459.595 126.187L466.863 131.494ZM527.147 36.8048H515.898V45.8048H527.147V36.8048ZM515.898 36.8048C509.361 36.8048 505.285 35.5243 502.92 33.7021C500.777 32.0513 499.432 29.4834 499.432 25.1524H490.432C490.432 31.59 492.582 37.0983 497.427 40.8316C502.051 44.3935 508.457 45.8048 515.898 45.8048V36.8048ZM499.432 25.1524C499.432 21.05 500.738 18.6214 502.864 17.0365C505.237 15.2668 509.338 14.021 515.898 14.021V5.02104C508.481 5.02104 502.099 6.38048 497.484 9.82125C492.621 13.4469 490.432 18.8339 490.432 25.1524H499.432ZM515.898 14.021H595.667V5.02104H515.898V14.021ZM595.667 14.021C602.204 14.021 606.28 15.3016 608.645 17.1238C610.787 18.7746 612.133 21.3425 612.133 25.6735H621.133C621.133 19.2359 618.983 13.7276 614.137 9.99429C609.514 6.4324 603.108 5.02104 595.667 5.02104V14.021ZM612.133 25.6735C612.133 29.7759 610.827 32.2045 608.701 33.7894C606.328 35.5591 602.227 36.8048 595.667 36.8048V45.8048C603.084 45.8048 609.466 44.4454 614.081 41.0046C618.944 37.379 621.133 31.9919 621.133 25.6735H612.133ZM595.667 36.8048H570.611V45.8048H595.667V36.8048ZM566.999 38.6221L479.559 156.379L486.784 161.744L574.224 43.9876L566.999 38.6221ZM479.642 161.853L588.047 298.888L595.106 293.305L486.701 156.269L479.642 161.853ZM591.577 300.596H614.268V291.596H591.577V300.596ZM536.863 323.38C530.491 323.38 526.536 322.141 524.255 320.397C522.202 318.828 520.909 316.393 520.909 312.249H511.909C511.909 318.526 514.025 323.906 518.79 327.548C523.326 331.014 529.598 332.38 536.863 332.38V323.38ZM520.909 312.249C520.909 308.059 521.936 305.746 523.2 304.459L516.777 298.155C513.267 301.731 511.909 306.714 511.909 312.249H520.909ZM523.2 304.459C525.763 301.847 527.307 301.155 527.901 301.054L526.393 292.181C522.896 292.775 519.667 295.209 516.777 298.155L523.2 304.459ZM527.796 301.07C529.87 300.768 532.862 300.596 536.863 300.596V291.596C532.682 291.596 529.197 291.771 526.499 292.164L527.796 301.07ZM536.863 300.596H547.601V291.596H536.863V300.596ZM551.177 293.365L466.805 182.903L459.653 188.366L544.025 298.828L551.177 293.365ZM459.573 183.011L380.314 293.473L387.627 298.72L466.885 188.258L459.573 183.011ZM383.971 300.596H395.731V291.596H383.971V300.596ZM395.731 300.596C402.268 300.596 406.344 301.877 408.709 303.699C410.852 305.35 412.197 307.918 412.197 312.249H421.197C421.197 305.811 419.047 300.303 414.202 296.57C409.578 293.008 403.172 291.596 395.731 291.596V300.596ZM412.197 312.249C412.197 316.351 410.891 318.78 408.765 320.365C406.392 322.134 402.291 323.38 395.731 323.38V332.38C403.148 332.38 409.53 331.021 414.145 327.58C419.008 323.954 421.197 318.567 421.197 312.249H412.197ZM274.359 300.596H341.018V291.596H274.359V300.596ZM395.731 323.38H211.464V332.38H395.731V323.38ZM536.863 332.38H810.177V323.38H536.863V332.38ZM928.96 212.189C928.96 179.068 917.43 150.503 894.459 126.736L887.987 132.991C909.332 155.076 919.96 181.395 919.96 212.189H928.96ZM894.435 126.711C871.102 102.936 842.848 90.9744 809.919 90.9744V99.9744C840.396 99.9744 866.346 110.939 888.011 133.015L894.435 126.711ZM809.919 90.9744C776.988 90.9744 748.889 102.938 725.891 126.736L732.362 132.991C753.675 110.936 779.443 99.9744 809.919 99.9744V90.9744ZM725.915 126.711C702.595 150.474 690.878 179.046 690.878 212.189H699.878C699.878 181.417 710.66 155.105 732.338 133.015L725.915 126.711ZM690.878 212.189C690.878 245.666 702.587 274.256 725.939 297.69L732.314 291.338C710.668 269.615 699.878 243.321 699.878 212.189H690.878ZM1014.78 394.11L989.071 419.818L995.434 426.182L1021.15 400.475L1014.78 394.11ZM725.939 297.69C726.693 298.447 727.453 299.192 728.218 299.924L734.44 293.421C733.727 292.739 733.018 292.044 732.314 291.338L725.939 297.69ZM995.434 419.818L879.527 303.934L873.164 310.299L989.071 426.182L995.434 419.818ZM905.888 284.312C921.292 263.584 928.96 239.481 928.96 212.189H919.96C919.96 237.68 912.839 259.871 898.665 278.943L905.888 284.312ZM899.095 284.81L913.567 299.279L919.93 292.914L905.458 278.445L899.095 284.81ZM916.748 300.596H946.849V291.596H916.748V300.596ZM945.357 331.063L1014.78 400.475L1021.15 394.11L951.72 324.698L945.357 331.063ZM1009.74 323.38H948.538V332.38H1009.74V323.38ZM810.171 332.361C835.962 332.314 858.948 325.135 878.969 310.773L873.723 303.46C855.31 316.668 834.175 323.317 810.155 323.361L810.171 332.361ZM677.116 300.596C695.254 300.786 713.21 300.72 731.217 301.171L731.442 292.174C713.357 291.721 695.17 291.784 677.21 291.597L677.116 300.596ZM54.0891 288.281L48.3399 295.205L48.4798 295.321L48.6243 295.432L54.0891 288.281ZM133.859 290.886L130.146 282.687L130.102 282.707L130.058 282.728L133.859 290.886ZM152.779 270.044L144.038 267.9L143.911 268.418L143.846 268.947L152.779 270.044ZM153.801 214.292H162.801V204.956L153.471 205.298L153.801 214.292ZM68.4068 229.402L64.68 221.21L64.6521 221.223L64.6242 221.236L68.4068 229.402ZM633.187 53.81L626.55 59.8888L626.76 60.1177L626.985 60.3317L633.187 53.81ZM633.187 16.8157L639.611 23.1196L639.611 23.1195L633.187 16.8157ZM669.493 16.8157L662.856 22.8945L663.066 23.1234L663.291 23.3374L669.493 16.8157ZM669.493 53.81L675.916 60.1138L675.916 60.1138L669.493 53.81ZM866.167 270.546L872.852 276.571L872.883 276.538L872.912 276.504L866.167 270.546ZM754.182 270.546L760.868 264.521L760.862 264.514L754.182 270.546ZM754.182 150.705L747.829 144.331L747.829 144.331L754.182 150.705ZM865.656 150.705L859.302 157.079L859.302 157.079L865.656 150.705ZM31.2828 261.186C31.2828 274.698 37.4175 286.136 48.3399 295.205L59.8384 281.356C52.3523 275.141 49.2828 268.517 49.2828 261.186H31.2828ZM48.6243 295.432C60.0944 304.197 74.4312 308.223 90.906 308.223V290.223C77.3823 290.223 67.1746 286.954 59.5539 281.13L48.6243 295.432ZM90.906 308.223C108.581 308.223 124.263 305.285 137.659 299.044L130.058 282.728C119.593 287.603 106.639 290.223 90.906 290.223V308.223ZM137.571 299.085C144.701 295.856 150.697 291.529 154.914 285.8L140.417 275.13C138.498 277.738 135.289 280.358 130.146 282.687L137.571 299.085ZM154.914 285.8C158.241 281.279 161.082 276.268 161.712 271.141L143.846 268.947C143.793 269.377 143.225 271.314 140.417 275.13L154.914 285.8ZM161.52 272.188C162.46 268.355 162.801 263.507 162.801 258.06H144.801C144.801 263.034 144.461 266.175 144.038 267.9L161.52 272.188ZM162.801 258.06V214.292H144.801V258.06H162.801ZM153.471 205.298C115.25 206.702 85.3793 211.794 64.68 221.21L72.1335 237.595C89.6141 229.642 116.674 224.662 154.132 223.286L153.471 205.298ZM64.6242 221.236C44.9445 230.351 31.2828 243.235 31.2828 261.186H49.2828C49.2828 254.128 54.3703 245.823 72.1894 237.569L64.6242 221.236ZM639.824 47.7312C636.625 44.2384 635.029 40.1766 635.029 35.0523H617.029C617.029 44.5172 620.205 52.9606 626.55 59.8888L639.824 47.7312ZM635.029 35.0523C635.029 29.9317 636.614 26.173 639.611 23.1196L626.764 10.5118C620.216 17.184 617.029 25.5836 617.029 35.0523H635.029ZM639.611 23.1195C643.069 19.5953 646.906 18 651.596 18V0C641.967 0 633.532 3.61516 626.764 10.5118L639.611 23.1195ZM651.596 18C656.269 18 659.814 19.5732 662.856 22.8945L676.13 10.7369C669.627 3.63722 661.241 0 651.596 0V18ZM663.291 23.3374C666.551 26.4377 668.163 30.1291 668.163 35.0523H686.163C686.163 25.3862 682.662 16.9193 675.695 10.2939L663.291 23.3374ZM668.163 35.0523C668.163 39.9872 666.533 43.9769 663.069 47.5061L675.916 60.1138C682.68 53.2221 686.163 44.7067 686.163 35.0523H668.163ZM663.069 47.5061C660.083 50.5493 656.475 52.1046 651.596 52.1046V70.1046C661.034 70.1046 669.358 66.7963 675.916 60.1138L663.069 47.5061ZM651.596 52.1046C646.709 52.1046 642.803 50.5347 639.389 47.2882L626.985 60.3317C633.798 66.8108 642.165 70.1046 651.596 70.1046V52.1046ZM880.177 208.541C880.177 230.398 873.255 248.926 859.421 264.588L872.912 276.504C889.759 257.43 898.177 234.621 898.177 208.541H880.177ZM859.481 264.521C845.782 279.721 829.429 287.077 809.919 287.077V305.077C834.721 305.077 855.871 295.413 872.852 276.571L859.481 264.521ZM809.919 287.077C790.79 287.077 774.599 279.756 760.868 264.521L747.497 276.571C764.447 295.378 785.408 305.077 809.919 305.077V287.077ZM760.862 264.514C746.712 248.845 739.661 230.342 739.661 208.541H721.661C721.661 234.677 730.285 257.511 747.503 276.578L760.862 264.514ZM739.661 208.541C739.661 187.912 746.613 170.956 760.536 157.08L747.829 144.331C730.384 161.717 721.661 183.319 721.661 208.541H739.661ZM760.536 157.08C774.592 143.071 790.906 136.258 809.919 136.258V118.258C785.979 118.258 765.141 127.077 747.829 144.331L760.536 157.08ZM809.919 136.258C828.932 136.258 845.249 143.071 859.302 157.079L872.009 144.331C854.699 127.076 833.859 118.258 809.919 118.258V136.258ZM859.302 157.079C873.223 170.956 880.177 187.913 880.177 208.541H898.177C898.177 183.318 889.451 161.717 872.009 144.331L859.302 157.079Z"
        fill="black" mask="url(#path-1-outside-1_3_21)" />
</svg>
    